<?xml version="1.0" encoding="utf-8"?>
<!-- Generator: Adobe Illustrator 24.3.0, SVG Export Plug-In . SVG Version: 6.00 Build 0)  -->
<svg width='100%' height='100%' id="Layer_1" xmlns="http://www.w3.org/2000/svg" xmlns:xlink="http://www.w3.org/1999/xlink" x="0px" y="0px"
	 viewBox="0 0 1920 931" style="enable-background:new 0 0 1920 931;" xml:space="preserve">
<style type="text/css">
	.st0{fill-rule:evenodd;clip-rule:evenodd;fill:url(#SVGID_1_);fill-opacity:0.78;}
	.st1{fill-rule:evenodd;clip-rule:evenodd;fill:url(#SVGID_2_);fill-opacity:0.78;}
</style>
<linearGradient id="SVGID_1_" gradientUnits="userSpaceOnUse" x1="-275.1889" y1="1349.1924" x2="1822.1379" y2="1349.1924">
	<stop  offset="0" style="stop-color:#1DDAFD"/>
	<stop  offset="1" style="stop-color:#36E191"/>
</linearGradient>
<path class="st0" d="M150.8,2391.3c-220.5-21.4-394.3-195.2-415.7-415.7C-315,1460.7-181.8,930.4,134.3,490.3
	c129.2-179.9,366.5-243.6,568-151.7c228.4,104.2,442.3,250.1,630,437.9c195.6,195.6,345.9,419.6,450.8,658.8
	c88.4,201.5,22.8,436.3-156.5,563.7C1188.4,2310.1,662,2441,150.8,2391.3z"/>
<linearGradient id="SVGID_2_" gradientUnits="userSpaceOnUse" x1="1035.4653" y1="-466.6729" x2="2401.3506" y2="30.4687">
	<stop  offset="0" style="stop-color:#E31E64"/>
	<stop  offset="1" style="stop-color:#FCC045"/>
</linearGradient>
<path class="st1" d="M2062.7,525.8c154.5-15,276.3-136.8,291.3-291.3c35.1-360.8-58.2-732.5-279.8-1040.9
	c-90.5-126.1-256.8-170.7-398.1-106.3c-160.1,73-309.9,175.3-441.5,306.9c-137.1,137.1-242.4,294-315.9,461.7
	c-61.9,141.2-16,305.8,109.7,395C1335.6,468.9,1704.5,560.7,2062.7,525.8z"/>
</svg>
